<svg xmlns="http://www.w3.org/2000/svg" width="201" height="90" viewBox="0 0 201 90" aria-label="Store Transform">
  <defs>
    <style>
      .word { font-family: 'Montserrat', Arial, Helvetica, sans-serif; letter-spacing: 2px; }
    </style>
  </defs>
  <rect width="201" height="90" fill="none"/>
  <g transform="translate(6,10)">
    <g>
      <path d="M18 60c10-6 12-20 8-26-5-8-1-14 6-18 6-3 13-2 18 0-5 2-10 6-12 10-3 6-1 12 2 16 5 6 3 16-6 22-8 6-20 6-26-4z" fill="#f2623e"/>
      <circle cx="30" cy="30" r="14" fill="none" stroke="#6b6b6b" stroke-width="2"/>
      <path d="M22 26h16M20 30h18M22 34h16" stroke="#6b6b6b" stroke-width="2"/>
    </g>
    <text x="60" y="28" class="word" font-size="22" fill="#7a7a7a">STORE</text>
    <g transform="translate(60,38)">
      <rect x="0" y="0" width="90" height="20" rx="4" fill="#f2623e"/>
      <text x="8" y="14" class="word" font-size="14" fill="#fff">TRANSFORM</text>
    </g>
  </g>
</svg>
